<svg xmlns="http://www.w3.org/2000/svg" viewBox="0 0 1200 780" font-family="PingFang SC, Hiragino Sans GB, Microsoft YaHei, sans-serif">
  <defs>
    <filter id="shadow" x="-10%" y="-10%" width="120%" height="130%">
      <feDropShadow dx="0" dy="2" stdDeviation="4" flood-color="#00000022"/>
    </filter>
    <marker id="arrow" viewBox="0 0 10 10" refX="9" refY="5" markerWidth="7" markerHeight="7" orient="auto-start-reverse">
      <path d="M0,0 L10,5 L0,10 z" fill="#4a5568"/>
    </marker>
    <marker id="arrowGreen" viewBox="0 0 10 10" refX="9" refY="5" markerWidth="7" markerHeight="7" orient="auto-start-reverse">
      <path d="M0,0 L10,5 L0,10 z" fill="#2f855a"/>
    </marker>
    <marker id="arrowPurple" viewBox="0 0 10 10" refX="9" refY="5" markerWidth="7" markerHeight="7" orient="auto-start-reverse">
      <path d="M0,0 L10,5 L0,10 z" fill="#6b46c1"/>
    </marker>
    <marker id="arrowOrange" viewBox="0 0 10 10" refX="9" refY="5" markerWidth="7" markerHeight="7" orient="auto-start-reverse">
      <path d="M0,0 L10,5 L0,10 z" fill="#c05621"/>
    </marker>
  </defs>

  <!-- 背景 -->
  <rect width="1200" height="780" fill="#f7fafc" rx="12"/>

  <!-- 标题 -->
  <text x="600" y="42" text-anchor="middle" font-size="26" font-weight="700" fill="#1a202c">Pi-MoA 双平面多模型协作架构</text>
  <text x="600" y="68" text-anchor="middle" font-size="13" fill="#718096">Dual-plane multi-model orchestration for pi agent · captain dispatches, cheap models execute, governance watches</text>

  <!-- 用户 -->
  <rect x="500" y="92" width="200" height="52" rx="26" fill="#2d3748" filter="url(#shadow)"/>
  <text x="600" y="124" text-anchor="middle" font-size="17" font-weight="600" fill="#ffffff">你（最终权威）</text>

  <!-- ═══ 执行面容器 ═══ -->
  <rect x="40" y="180" width="740" height="500" rx="14" fill="#ebf4ff" stroke="#90cdf4" stroke-width="2"/>
  <text x="64" y="212" font-size="16" font-weight="700" fill="#2b6cb0">执行面 Execution Plane（实时）</text>
  <text x="64" y="232" font-size="12" fill="#4a5568">captain 是唯一通讯枢纽 · 星型拓扑可审计可裁决</text>

  <!-- captain -->
  <rect x="290" y="250" width="240" height="86" rx="12" fill="#2b6cb0" filter="url(#shadow)"/>
  <text x="410" y="278" text-anchor="middle" font-size="16" font-weight="700" fill="#ffffff">captain · 聚合器①</text>
  <text x="410" y="300" text-anchor="middle" font-size="12" fill="#bee3f8">强模型主会话（K3/Claude/GPT）</text>
  <text x="410" y="320" text-anchor="middle" font-size="12" fill="#bee3f8">拆片派活 · 抽查裁决 · 难片亲执 ≤40%</text>

  <!-- 用户→captain -->
  <line x1="560" y1="144" x2="480" y2="248" stroke="#4a5568" stroke-width="2" marker-end="url(#arrow)"/>
  <text x="478" y="200" font-size="12" fill="#4a5568">对话</text>

  <!-- 四个角色 -->
  <!-- executor -->
  <rect x="70" y="390" width="160" height="76" rx="10" fill="#38a169" filter="url(#shadow)"/>
  <text x="150" y="416" text-anchor="middle" font-size="14" font-weight="700" fill="#ffffff">executor</text>
  <text x="150" y="436" text-anchor="middle" font-size="11" fill="#c6f6d5">便宜模型 · 限定域可写</text>
  <text x="150" y="452" text-anchor="middle" font-size="11" fill="#c6f6d5">真实执行切片</text>
  <!-- analyst -->
  <rect x="250" y="390" width="160" height="76" rx="10" fill="#38a169" filter="url(#shadow)"/>
  <text x="330" y="416" text-anchor="middle" font-size="14" font-weight="700" fill="#ffffff">analyst</text>
  <text x="330" y="436" text-anchor="middle" font-size="11" fill="#c6f6d5">便宜模型 · 只读</text>
  <text x="330" y="452" text-anchor="middle" font-size="11" fill="#c6f6d5">分析（实证纪律）</text>
  <!-- critic -->
  <rect x="430" y="390" width="160" height="76" rx="10" fill="#38a169" filter="url(#shadow)"/>
  <text x="510" y="416" text-anchor="middle" font-size="14" font-weight="700" fill="#ffffff">critic</text>
  <text x="510" y="436" text-anchor="middle" font-size="11" fill="#c6f6d5">便宜模型 · 只读</text>
  <text x="510" y="452" text-anchor="middle" font-size="11" fill="#c6f6d5">对抗审查找错</text>
  <!-- devil -->
  <rect x="610" y="390" width="150" height="76" rx="10" fill="#6b46c1" filter="url(#shadow)"/>
  <text x="685" y="416" text-anchor="middle" font-size="14" font-weight="700" fill="#ffffff">devil</text>
  <text x="685" y="436" text-anchor="middle" font-size="11" fill="#e9d8fd">跨家族模型 · 只读</text>
  <text x="685" y="452" text-anchor="middle" font-size="11" fill="#e9d8fd">异构魔鬼代言人</text>

  <!-- captain → roles（任务卡） -->
  <line x1="330" y1="336" x2="170" y2="388" stroke="#2f855a" stroke-width="2" stroke-dasharray="6,3" marker-end="url(#arrowGreen)"/>
  <line x1="380" y1="336" x2="335" y2="388" stroke="#2f855a" stroke-width="2" stroke-dasharray="6,3" marker-end="url(#arrowGreen)"/>
  <line x1="440" y1="336" x2="500" y2="388" stroke="#2f855a" stroke-width="2" stroke-dasharray="6,3" marker-end="url(#arrowGreen)"/>
  <line x1="490" y1="336" x2="668" y2="388" stroke="#2f855a" stroke-width="2" stroke-dasharray="6,3" marker-end="url(#arrowGreen)"/>
  <text x="238" y="352" font-size="11" fill="#2f855a">任务卡（scope 互不相交）</text>

  <!-- roles → captain（结果卡/handoff） -->
  <line x1="150" y1="466" x2="330" y2="352" stroke="#c05621" stroke-width="1.6" stroke-dasharray="2,3" marker-end="url(#arrowOrange)"/>
  <line x1="685" y1="466" x2="492" y2="352" stroke="#c05621" stroke-width="1.6" stroke-dasharray="2,3" marker-end="url(#arrowOrange)"/>
  <text x="560" y="480" font-size="11" fill="#c05621">结果卡 ≤300字 / handoff 包（含 dead_ends）</text>

  <!-- scope-guard 护盾 -->
  <rect x="70" y="500" width="520" height="58" rx="10" fill="#fff5f5" stroke="#fc8181" stroke-width="1.6"/>
  <text x="88" y="524" font-size="13" font-weight="700" fill="#c53030">🛡️ scope-guard 硬边界（物理拦截，非 prompt 自觉）</text>
  <text x="88" y="544" font-size="11" fill="#742a2a">敏感路径禁写 · 子代理 cwd 禁写（含 bash 绕行拦截）· 出网 PII redact · 预算告警</text>

  <!-- 黑板 -->
  <rect x="70" y="586" width="690" height="70" rx="10" fill="#2d3748" filter="url(#shadow)"/>
  <text x="90" y="614" font-size="14" font-weight="700" fill="#faf089">📋 黑板 .pi/moa/&lt;task&gt;/</text>
  <text x="90" y="636" font-size="11.5" fill="#e2e8f0">任务卡 · 结果卡 · handoff 包 · 运行记录（session/run/actor/读写范围/tokens_by_model）全程落盘</text>

  <!-- captain→黑板 -->
  <line x1="410" y1="336" x2="410" y2="584" stroke="#4a5568" stroke-width="1.6" stroke-dasharray="4,4" marker-end="url(#arrow)"/>

  <!-- ═══ 治理面容器 ═══ -->
  <rect x="810" y="180" width="350" height="500" rx="14" fill="#faf5ff" stroke="#d6bcfa" stroke-width="2"/>
  <text x="834" y="212" font-size="16" font-weight="700" fill="#6b46c1">治理面 Governance Plane（异步）</text>
  <text x="834" y="232" font-size="12" fill="#4a5568">不进实时链路 · 只有建议权+升级权</text>

  <!-- Navigator -->
  <rect x="850" y="250" width="270" height="120" rx="12" fill="#6b46c1" filter="url(#shadow)"/>
  <text x="985" y="278" text-anchor="middle" font-size="16" font-weight="700" fill="#ffffff">Navigator · 聚合器②</text>
  <text x="985" y="300" text-anchor="middle" font-size="12" fill="#e9d8fd">独立上下文强模型</text>
  <text x="985" y="322" text-anchor="middle" font-size="12" fill="#e9d8fd">运行监测 · 审计 · 成本基线对比</text>
  <text x="985" y="344" text-anchor="middle" font-size="12" fill="#e9d8fd">角色可信度 · 调度适配 · 优化建议</text>

  <!-- 监测项 -->
  <rect x="850" y="400" width="270" height="180" rx="10" fill="#ffffff" stroke="#d6bcfa" stroke-width="1.4"/>
  <text x="868" y="426" font-size="13" font-weight="700" fill="#553c9a">监测对象</text>
  <text x="868" y="450" font-size="11.5" fill="#4a5568">· 多模型 vs 单模型 成本/质量/时间基线</text>
  <text x="868" y="472" font-size="11.5" fill="#4a5568">· 重叠税（重复阅读 token 占比）</text>
  <text x="868" y="494" font-size="11.5" fill="#4a5568">· 调度矩阵命中率 / 单模型反超事件</text>
  <text x="868" y="516" font-size="11.5" fill="#4a5568">· 角色可信度（误判率 → 抽查率联动）</text>
  <text x="868" y="538" font-size="11.5" fill="#4a5568">· 三卡协议遵循率 / 门禁违规</text>
  <text x="868" y="564" font-size="11.5" fill="#6b46c1" font-weight="600">产出：待审 Writeback（不直写正式库）</text>

  <!-- 黑板 → Navigator -->
  <line x1="762" y1="621" x2="940" y2="582" stroke="#6b46c1" stroke-width="2" stroke-dasharray="6,3" marker-end="url(#arrowPurple)"/>
  <text x="786" y="640" font-size="11" fill="#6b46c1">读取运行记录（异步）</text>

  <!-- Navigator → 用户（升级）：先上后左，避开标题区 -->
  <path d="M985,248 L985,150 L706,128" stroke="#6b46c1" stroke-width="2" stroke-dasharray="6,3" fill="none" marker-end="url(#arrowPurple)"/>
  <text x="880" y="160" font-size="11" fill="#6b46c1">建议 / 升级（裁决终点=你）</text>

  <!-- 底部图例 -->
  <rect x="40" y="706" width="1120" height="54" rx="10" fill="#edf2f7"/>
  <text x="64" y="728" font-size="12" font-weight="700" fill="#2d3748">核心机制：</text>
  <text x="64" y="748" font-size="11.5" fill="#4a5568">调度矩阵（任务类型→子模型数） · 抽查机制（10-30% 风险导向复核） · 实证纪律（提交说明≠实证） · 一读多评（防重叠税） · handoff 死路清单 · 多模态任务视觉步骤归 captain</text>
</svg>
